HIERARCHY
ROOT Hip
{
	OFFSET	0.00  0.00  0.00 
	CHANNELS 6 Xposition Yposition Zposition Xrotation Zrotation Yrotation
	JOINT Abdomen
	{
		OFFSET	0.039181 5.637571 0.560720
		CHANNELS 3 Xrotation Zrotation Yrotation
		JOINT Chest
		{
			OFFSET	-0.136063 7.190207 -0.124363
			CHANNELS 3 Xrotation Zrotation Yrotation
			JOINT Neck
			{
				OFFSET	0.193764 10.560151 -1.259468
				CHANNELS 3 Xrotation Zrotation Yrotation
				JOINT Head
				{
					OFFSET	-0.096882 0.362727 0.622109
					CHANNELS 3 Xrotation Zrotation Yrotation
					JOINT LeftEye
					{
						OFFSET	1.356350 5.062673 4.221998
						CHANNELS 3 Zrotation Yrotation Xrotation
						End Site
						{
							OFFSET 0.000000 0.000000 0.871939
						}
					}
					JOINT RightEye
					{
						OFFSET	-1.356350 5.062673 4.221998
						CHANNELS 3 Zrotation Yrotation Xrotation
						End Site
						{
							OFFSET 0.000000 0.000000 0.871939
						}
					}
				}
			}
			JOINT RightCollar
			{
				OFFSET	-3.778404 4.940989 0.193764
				CHANNELS 3 Yrotation Zrotation Xrotation
				JOINT RightShoulder
				{
					OFFSET	-2.615818 1.356350 -0.484411
					CHANNELS 3 Zrotation Yrotation Xrotation
					JOINT RightForearm
					{
						OFFSET	-11.432094 0.484410 -1.937643
						CHANNELS 3 Yrotation Zrotation Xrotation
						JOINT RightHand
						{
							OFFSET	-10.657035 -0.096881 0.581293
							CHANNELS 3 Zrotation Yrotation Xrotation
							JOINT RightThumb1
							{
								OFFSET	-0.678175 -0.581297 0.968821
								CHANNELS 3 Zrotation Yrotation Xrotation
								JOINT RightThumb2
								{
									OFFSET	-0.968823 -0.484410 0.484411
									CHANNELS 3 Zrotation Yrotation Xrotation
									JOINT RightThumb3
									{
										OFFSET	-0.929680 -0.497680 0.055639
										CHANNELS 3 Zrotation Yrotation Xrotation
										End Site
										{
											OFFSET -1.097190 -0.513867 -0.001182
										}
									}
								}
							}
							JOINT RightIndex1
							{
								OFFSET	-3.003348 0.581291 1.259468
								CHANNELS 3 Zrotation Yrotation Xrotation
								JOINT RightIndex2
								{
									OFFSET	-1.468153 -0.266718 0.069755
									CHANNELS 3 Zrotation Yrotation Xrotation
									JOINT RightIndex3
									{
										OFFSET	-0.944212 -0.382684 -0.083028
										CHANNELS 3 Zrotation Yrotation Xrotation
										End Site
										{
											OFFSET -0.675657 -0.558718 0.000000
										}
									}
								}
							}
							JOINT RightMid1
							{
								OFFSET	-3.197113 0.581291 0.290646
								CHANNELS 3 Zrotation Yrotation Xrotation
								JOINT RightMid2
								{
									OFFSET	-1.550115 -0.387529 0.000000
									CHANNELS 3 Zrotation Yrotation Xrotation
									JOINT RightMid3
									{
										OFFSET	-0.731071 -0.803926 0.018214
										CHANNELS 3 Zrotation Yrotation Xrotation
										End Site
										{
											OFFSET -0.366992 -0.937043 0.083406
										}
									}
								}
							}
							JOINT RightRing1
							{
								OFFSET	-3.197113 0.387529 -0.678175
								CHANNELS 3 Zrotation Yrotation Xrotation
								JOINT RightRing2
								{
									OFFSET	-1.259466 -0.484410 0.096882
									CHANNELS 3 Zrotation Yrotation Xrotation
									JOINT RightRing3
									{
										OFFSET	-0.551552 -0.801218 0.111221
										CHANNELS 3 Zrotation Yrotation Xrotation
										End Site
										{
											OFFSET -0.245208 -0.810324 0.000000
										}
									}
								}
							}
							JOINT RightPinky1
							{
								OFFSET	-2.809584 -0.096881 -1.453232
								CHANNELS 3 Zrotation Yrotation Xrotation
								JOINT RightPinky2
								{
									OFFSET	-0.984323 -0.316034 0.039140
									CHANNELS 3 Zrotation Yrotation Xrotation
									JOINT RightPinky3
									{
										OFFSET	-0.468908 -0.555906 0.057742
										CHANNELS 3 Zrotation Yrotation Xrotation
										End Site
										{
											OFFSET -0.479664 -0.640198 0.044081
										}
									}
								}
							}
						}
					}
				}
			}
			JOINT LeftCollar
			{
				OFFSET	3.972168 4.940989 0.193764
				CHANNELS 3 Yrotation Zrotation Xrotation
				JOINT LeftShoulder
				{
					OFFSET	2.615818 1.356350 -0.484411
					CHANNELS 3 Zrotation Yrotation Xrotation
					JOINT LeftForearm
					{
						OFFSET	11.432094 0.484410 -1.937643
						CHANNELS 3 Yrotation Zrotation Xrotation
						JOINT LeftHand
						{
							OFFSET	10.657035 -0.096881 0.581293
							CHANNELS 3 Zrotation Yrotation Xrotation
							JOINT LeftThumb1
							{
								OFFSET	0.678175 -0.581297 0.968821
								CHANNELS 3 Zrotation Yrotation Xrotation
								JOINT LeftThumb2
								{
									OFFSET	0.968823 -0.484410 0.484411
									CHANNELS 3 Zrotation Yrotation Xrotation
									JOINT LeftThumb3
									{
										OFFSET	0.929680 -0.497680 0.055639
										CHANNELS 3 Zrotation Yrotation Xrotation
										End Site
										{
											OFFSET 1.097190 -0.513867 -0.001182
										}
									}
								}
							}
							JOINT LeftIndex1
							{
								OFFSET	3.003348 0.581291 1.259468
								CHANNELS 3 Zrotation Yrotation Xrotation
								JOINT LeftIndex2
								{
									OFFSET	1.468153 -0.266718 0.069755
									CHANNELS 3 Zrotation Yrotation Xrotation
									JOINT LeftIndex3
									{
										OFFSET	0.944212 -0.382684 -0.083028
										CHANNELS 3 Zrotation Yrotation Xrotation
										End Site
										{
											OFFSET 0.675657 -0.558718 0.000000
										}
									}
								}
							}
							JOINT LeftMid1
							{
								OFFSET	3.197113 0.581291 0.290646
								CHANNELS 3 Zrotation Yrotation Xrotation
								JOINT LeftMid2
								{
									OFFSET	1.550115 -0.387529 0.000000
									CHANNELS 3 Zrotation Yrotation Xrotation
									JOINT LeftMid3
									{
										OFFSET	0.731071 -0.803926 0.018214
										CHANNELS 3 Zrotation Yrotation Xrotation
										End Site
										{
											OFFSET 0.366992 -0.937043 0.083406
										}
									}
								}
							}
							JOINT LeftRing1
							{
								OFFSET	3.197113 0.387529 -0.678175
								CHANNELS 3 Zrotation Yrotation Xrotation
								JOINT LeftRing2
								{
									OFFSET	1.259466 -0.484410 0.096882
									CHANNELS 3 Zrotation Yrotation Xrotation
									JOINT LeftRing3
									{
										OFFSET	0.551552 -0.801218 0.111221
										CHANNELS 3 Zrotation Yrotation Xrotation
										End Site
										{
											OFFSET 0.245208 -0.810324 0.000000
										}
									}
								}
							}
							JOINT LeftPinky1
							{
								OFFSET	2.809584 -0.096881 -1.453232
								CHANNELS 3 Zrotation Yrotation Xrotation
								JOINT LeftPinky2
								{
									OFFSET	0.984323 -0.316034 0.039140
									CHANNELS 3 Zrotation Yrotation Xrotation
									JOINT LeftPinky3
									{
										OFFSET	0.468908 -0.555906 0.057742
										CHANNELS 3 Zrotation Yrotation Xrotation
										End Site
										{
											OFFSET 0.479664 -0.640198 0.044081
										}
									}
								}
							}
						}
					}
				}
			}
		}
	}
	JOINT RightThigh
	{
		OFFSET	-3.875286 0.717509 0.339475
		CHANNELS 3 Xrotation Zrotation Yrotation
		JOINT RightShin
		{
			OFFSET	-0.434323 -20.673391 0.003424
			CHANNELS 3 Xrotation Zrotation Yrotation
			JOINT RightFoot
			{
				OFFSET	-0.063555 -15.653578 -0.075717
				CHANNELS 3 Xrotation Yrotation Zrotation
				JOINT RightToe
				{
					OFFSET	-0.513669 -2.790361 5.061637
					CHANNELS 3 Xrotation Yrotation Zrotation
					End Site
					{
						OFFSET 0.000000 -0.280183 2.993164
					}
				}
			}
		}
	}
	JOINT LeftThigh
	{
		OFFSET	3.875286 0.717509 0.339475
		CHANNELS 3 Xrotation Zrotation Yrotation
		JOINT LeftShin
		{
			OFFSET	0.434323 -20.673391 0.003424
			CHANNELS 3 Xrotation Zrotation Yrotation
			JOINT LeftFoot
			{
				OFFSET	0.063555 -15.653578 -0.075717
				CHANNELS 3 Xrotation Yrotation Zrotation
				JOINT LeftToe
				{
					OFFSET	0.513669 -2.874842 4.946725
					CHANNELS 3 Xrotation Yrotation Zrotation
					End Site
					{
						OFFSET 0.000000 -0.195702 3.108076
					}
				}
			}
		}
	}
}
MOTION
Frames:     6
Frame Time: 0.033333
-55.180393 43.774017 75.900093 7.402650 4.183730 -45.324299 -4.578890 3.504430 -1.158870 7.117320 8.896890 4.635800 0.000000 0.000000 0.000000 -18.195999 -14.729700 1.063050 0.000000 0.000000 0.000000 0.000000 0.000000 0.000000 -7.087940 -23.458401 -0.688165 94.177605 -10.191012 -9.835794 43.240261 -0.091272 -0.373599 -9.172663 -23.125713 -0.591864 -2.196803 8.088476 9.363434 19.143616 8.200828 -17.027071 -0.627714 11.536110 -17.452793 6.289890 1.533570 6.276580 15.344869 9.822695 -5.878980 -20.989811 4.088040 -6.880397 -0.175781 0.000000 0.000000 8.244953 -1.502700 0.722675 -12.838020 -2.429856 5.230082 -0.175781 0.000000 0.000000 -0.156757 -5.465929 4.370303 -17.719269 -3.972915 -0.926374 -0.175781 0.000000 0.000000 7.752715 -4.393883 3.036627 4.441531 -3.901016 1.855662 3.986730 14.065400 -0.455488 -93.047401 -3.553637 13.397745 -41.130814 -0.200439 -0.445365 13.314151 22.143250 1.930560 1.301079 -8.886789 9.164861 -1.022189 -8.414251 -17.094839 9.014142 -12.322233 -17.905319 0.000000 0.000000 0.000000 -21.136637 -10.005515 -5.939188 2.854853 -3.570157 -6.428789 -0.175781 0.000000 0.000000 -0.351563 0.000000 0.000000 -21.667566 1.148763 4.187686 -0.175781 0.000000 0.000000 -0.736324 5.381598 4.224761 16.871576 3.912536 -1.093365 -0.175781 0.000000 0.000000 -8.641175 4.276957 2.914167 -5.719903 3.533212 0.809331 -19.825388 -3.668638 -21.098267 27.948273 0.000293 -0.291140 19.477402 -13.831675 -0.225189 -0.000457 0.016384 -0.175016 -5.041131 0.333078 14.473228 10.195149 -0.040184 0.038096 18.342928 13.675840 -7.465226 0.000000 0.000000 0.000000 
-56.674507 43.417465 77.756836 7.413850 5.229610 -44.482899 -4.929350 3.152380 -1.150240 7.814490 8.186050 4.297180 0.000000 0.000000 0.000000 -18.890800 -14.337400 1.131840 0.000000 0.000000 0.000000 0.000000 0.000000 0.000000 -7.279540 -23.456100 -0.758140 95.296440 -10.173519 -11.080975 43.064625 0.037464 -0.414836 -9.290830 -23.651133 0.307906 -2.196803 8.088476 9.363434 19.143616 8.200828 -17.027071 -0.627714 11.536110 -17.452793 6.289890 1.533570 6.276580 15.344869 9.822695 -5.878980 -20.989811 4.088040 -6.880397 -0.175781 0.000000 0.000000 8.244953 -1.502700 0.722675 -12.838020 -2.429856 5.230082 -0.175781 0.000000 0.000000 -0.156757 -5.465929 4.370303 -17.719269 -3.972915 -0.926374 -0.175781 0.000000 0.000000 7.752715 -4.393883 3.036627 4.441531 -3.901016 1.855662 3.618820 13.717000 -0.348070 -91.233200 -6.899182 12.272790 -42.009125 -0.325311 -0.495735 13.360339 21.490467 1.908134 1.301079 -8.886789 9.164861 -1.022189 -8.414251 -17.094839 9.014142 -12.322233 -17.905319 0.000000 0.000000 0.000000 -21.136637 -10.005515 -5.939188 2.854853 -3.570157 -6.428789 -0.175781 0.000000 0.000000 -0.351563 0.000000 0.000000 -21.667566 1.148763 4.187686 -0.175781 0.000000 0.000000 -0.736324 5.381598 4.224761 16.871576 3.912536 -1.093365 -0.175781 0.000000 0.000000 -8.641175 4.276957 2.914167 -5.719903 3.533212 0.809331 -20.947962 -2.033448 -21.681723 17.929539 0.000488 -0.073265 16.417053 -11.845077 0.819430 -0.000457 0.016384 -0.175016 -1.292075 -0.342100 14.570396 8.242581 -0.551375 0.172001 17.992876 13.861432 -6.401569 0.000000 0.000000 0.000000 
-58.264145 42.685627 79.566208 7.781210 6.270340 -43.251801 -5.630920 2.624010 -0.785697 8.684190 7.299100 4.113310 0.000000 0.000000 0.000000 -19.360901 -13.463200 0.628217 0.000000 0.000000 0.000000 0.000000 0.000000 0.000000 -7.441050 -22.888700 -1.114910 95.511398 -10.174721 -9.883576 42.888710 -0.091645 -0.370247 -9.205855 -24.439266 0.740449 -2.196803 8.088476 9.363434 19.143616 8.200828 -17.027071 -0.627714 11.536110 -17.452793 6.289890 1.533570 6.276580 15.344869 9.822695 -5.878980 -20.989811 4.088040 -6.880397 -0.175781 0.000000 0.000000 8.244953 -1.502700 0.722675 -12.838020 -2.429856 5.230082 -0.175781 0.000000 0.000000 -0.156757 -5.465929 4.370303 -17.719269 -3.972915 -0.926374 -0.175781 0.000000 0.000000 7.752715 -4.393883 3.036627 4.441531 -3.901016 1.855662 3.618820 13.717000 -0.348070 -89.895317 -9.685230 11.252845 -42.888588 -0.196171 -0.464950 13.602665 21.342283 2.438715 1.301079 -8.886789 9.164861 -1.022189 -8.414251 -17.094839 9.014142 -12.322233 -17.905319 0.000000 0.000000 0.000000 -21.136637 -10.005515 -5.939188 2.854853 -3.570157 -6.428789 -0.175781 0.000000 0.000000 -0.351563 0.000000 0.000000 -21.667566 1.148763 4.187686 -0.175781 0.000000 0.000000 -0.736324 5.381598 4.224761 16.871576 3.912536 -1.093365 -0.175781 0.000000 0.000000 -8.641175 4.276957 2.914167 -5.719903 3.533212 0.809331 -21.215273 -0.853045 -23.136892 5.624242 0.000732 -0.198559 12.701370 -11.103384 3.058985 -0.000457 0.016384 -0.175016 0.769133 -0.585070 14.429010 9.666567 -0.160418 0.026537 13.288819 12.764974 -6.015763 0.000000 0.000000 0.000000 
-59.926937 41.798168 81.336731 7.975430 7.312190 -42.030701 -6.507580 1.921140 -0.394760 9.552540 6.414490 3.902480 0.000000 0.000000 0.000000 -19.652700 -12.606800 -0.144193 0.000000 0.000000 0.000000 0.000000 0.000000 0.000000 -7.772200 -21.966400 -1.491130 94.919647 -9.982243 -7.638686 42.888466 0.230598 -0.476955 -8.822698 -24.947527 1.062650 -2.196803 8.088476 9.363434 19.143616 8.200828 -17.027071 -0.627714 11.536110 -17.452793 6.289890 1.533570 6.276580 15.344869 9.822695 -5.878980 -20.989811 4.088040 -6.880397 -0.175781 0.000000 0.000000 8.244953 -1.502700 0.722675 -12.838020 -2.429856 5.230082 -0.175781 0.000000 0.000000 -0.156757 -5.465929 4.370303 -17.719269 -3.972915 -0.926374 -0.175781 0.000000 0.000000 7.752715 -4.393883 3.036627 4.441531 -3.901016 1.855662 3.805520 14.066700 -0.412767 -89.423706 -12.666922 10.235398 -43.767590 -0.146432 -0.458746 13.914076 21.359100 3.569380 1.301079 -8.886789 9.164861 -1.022189 -8.414251 -17.094839 9.014142 -12.322233 -17.905319 0.000000 0.000000 0.000000 -21.136637 -10.005515 -5.939188 2.854853 -3.570157 -6.428789 -0.175781 0.000000 0.000000 -0.351563 0.000000 0.000000 -21.667566 1.148763 4.187686 -0.175781 0.000000 0.000000 -0.736324 5.381598 4.224761 16.871576 3.912536 -1.093365 -0.175781 0.000000 0.000000 -8.641175 4.276957 2.914167 -5.719903 3.533212 0.809331 -22.462523 -0.334590 -23.558752 0.000000 0.000000 0.000000 9.316759 -10.818276 3.943175 -0.000457 0.016384 -0.175016 2.634744 -0.525834 14.460967 13.182377 -0.172095 0.034683 8.054652 10.967523 -5.771634 0.000000 0.000000 0.000000 
-61.640881 41.034008 83.077309 8.166040 8.005030 -40.853500 -7.209750 1.569530 -0.022668 10.423300 5.705710 3.696740 0.000000 0.000000 0.000000 -19.972401 -12.083700 -0.594083 0.000000 0.000000 0.000000 0.000000 0.000000 0.000000 -7.903160 -20.872000 -1.707790 93.898140 -9.805696 -4.610921 42.712940 -0.090919 -0.368876 -8.859289 -25.496822 1.274862 -2.196803 8.088476 9.363434 19.143616 8.200828 -17.027071 -0.627714 11.536110 -17.452793 6.289890 1.533570 6.276580 15.344869 9.822695 -5.878980 -20.989811 4.088040 -6.880397 -0.175781 0.000000 0.000000 8.244953 -1.502700 0.722675 -12.838020 -2.429856 5.230082 -0.175781 0.000000 0.000000 -0.156757 -5.465929 4.370303 -17.719269 -3.972915 -0.926374 -0.175781 0.000000 0.000000 7.752715 -4.393883 3.036627 4.441531 -3.901016 1.855662 4.171160 14.239300 -0.510743 -89.419319 -15.126819 9.334823 -44.470695 -0.146251 -0.466811 14.257508 21.352249 4.867220 1.301079 -8.886789 9.164861 -1.022189 -8.414251 -17.094839 9.014142 -12.322233 -17.905319 0.000000 0.000000 0.000000 -21.136637 -10.005515 -5.939188 2.854853 -3.570157 -6.428789 -0.175781 0.000000 0.000000 -0.351563 0.000000 0.000000 -21.667566 1.148763 4.187686 -0.175781 0.000000 0.000000 -0.736324 5.381598 4.224761 16.871576 3.912536 -1.093365 -0.175781 0.000000 0.000000 -8.641175 4.276957 2.914167 -5.719903 3.533212 0.809331 -26.322998 -0.331973 -23.112425 3.163322 0.000801 -0.188589 6.926424 -10.405863 2.939947 -0.000457 0.016384 -0.175016 5.339044 -0.144283 13.816620 14.400532 -0.573371 0.516021 5.597606 8.838227 -5.683030 0.000000 0.000000 0.000000 
-63.383793 40.796444 84.796486 8.343520 8.001480 -39.950100 -7.737290 1.567640 0.138678 10.767200 5.181120 3.456620 0.000000 0.000000 0.000000 -20.151699 -12.070300 -0.733061 0.000000 0.000000 0.000000 0.000000 0.000000 0.000000 -8.062540 -20.321301 -1.876810 93.269676 -9.647857 -2.515424 42.712940 -0.090913 -0.368877 -9.031374 -26.188467 1.196781 -2.196803 8.088476 9.363434 19.143616 8.200828 -17.027071 -0.627714 11.536110 -17.452793 6.289890 1.533570 6.276580 15.344869 9.822695 -5.878980 -20.989811 4.088040 -6.880397 -0.175781 0.000000 0.000000 8.244953 -1.502700 0.722675 -12.838020 -2.429856 5.230082 -0.175781 0.000000 0.000000 -0.156757 -5.465929 4.370303 -17.719269 -3.972915 -0.926374 -0.175781 0.000000 0.000000 7.752715 -4.393883 3.036627 4.441531 -3.901016 1.855662 4.174430 14.414600 -0.523273 -89.340935 -15.998631 8.582669 -44.822250 -0.145306 -0.470560 14.599290 21.342630 5.989116 1.301079 -8.886789 9.164861 -1.022189 -8.414251 -17.094839 9.014142 -12.322233 -17.905319 0.000000 0.000000 0.000000 -21.136637 -10.005515 -5.939188 2.854853 -3.570157 -6.428789 -0.175781 0.000000 0.000000 -0.351563 0.000000 0.000000 -21.667566 1.148763 4.187686 -0.175781 0.000000 0.000000 -0.736324 5.381598 4.224761 16.871576 3.912536 -1.093365 -0.175781 0.000000 0.000000 -8.641175 4.276957 2.914167 -5.719903 3.533212 0.809331 -31.572519 -0.673828 -21.824989 12.480365 0.000607 -0.050783 4.228055 -10.663215 0.980928 -0.000457 0.016384 -0.175016 10.940452 -0.485377 14.594352 10.193957 -0.161615 0.027849 4.776810 9.705971 0.425703 0.000000 0.000000 0.000000 
